<?xml version="1.0" standalone="no"?>
<!DOCTYPE svg PUBLIC "-//W3C//DTD SVG 20010904//EN"
 "http://www.w3.org/TR/2001/REC-SVG-20010904/DTD/svg10.dtd">
<svg version="1.0" xmlns="http://www.w3.org/2000/svg"
 width="512.000000pt" height="512.000000pt" viewBox="0 0 512.000000 512.000000"
 preserveAspectRatio="xMidYMid meet">
<metadata>
Created by potrace 1.14, written by Peter Selinger 2001-2017
</metadata>
<g transform="translate(0.000000,512.000000) scale(0.100000,-0.100000)"
fill="#000000" stroke="none">
<path d="M610 4960 l0 -150 -300 0 -300 0 0 -2400 0 -2400 2550 0 2550 0 0
2400 0 2400 -300 0 -300 0 0 150 0 150 -150 0 -150 0 0 -150 0 -150 -300 0
-300 0 0 150 0 150 -150 0 -150 0 0 -150 0 -150 -300 0 -300 0 0 150 0 150
-150 0 -150 0 0 -150 0 -150 -300 0 -300 0 0 150 0 150 -150 0 -150 0 0 -150
0 -150 -300 0 -300 0 0 150 0 150 -150 0 -150 0 0 -150z m4200 -3145 l0 -1505
-2250 0 -2250 0 0 1505 0 1505 2250 0 2250 0 0 -1505z"/>
<path d="M2410 2841 l0 -179 -66 -16 c-74 -19 -167 -59 -233 -100 l-44 -28
-126 126 -126 126 -105 -105 -105 -105 125 -125 125 -125 -19 -33 c-57 -97
-116 -243 -116 -289 0 -17 -12 -18 -180 -18 l-180 0 0 -150 0 -150 176 -2 177
-3 17 -65 c23 -86 52 -157 89 -218 17 -27 31 -53 31 -58 0 -5 -55 -64 -122
-131 l-123 -123 105 -105 105 -105 126 126 126 126 44 -28 c66 -41 159 -81
233 -100 l66 -16 0 -174 0 -174 150 0 150 0 0 174 0 174 67 16 c73 19 195 72
244 107 l31 22 122 -122 c67 -66 126 -121 131 -121 6 0 55 45 110 100 l100
100 -124 124 -124 124 52 104 c29 56 60 135 70 173 l18 70 177 3 176 2 0 150
0 150 -178 0 -177 0 -13 58 c-7 31 -38 108 -69 171 l-56 113 124 124 124 124
-105 105 -105 105 -126 -126 -127 -127 -31 22 c-49 35 -171 88 -244 107 l-67
16 0 179 0 179 -150 0 -150 0 0 -179z m285 -486 c206 -53 366 -220 410 -430
18 -88 18 -132 0 -219 -77 -366 -468 -552 -805 -383 -91 46 -187 143 -234 238
-38 77 -66 185 -66 254 0 69 28 177 66 254 67 136 203 245 354 285 73 19 201
20 275 1z"/>
</g>
</svg>
