<svg width="36" height="36" fill="none" xmlns="http://www.w3.org/2000/svg"><g opacity=".88"><path d="M24.473 16.282a2.556 2.556 0 0 1-2.153-1.18 2.553 2.553 0 0 1-4.306 0 2.553 2.553 0 0 1-4.305 0A2.555 2.555 0 0 1 9 13.726a.402.402 0 0 1 .804 0 1.75 1.75 0 1 0 3.501 0 .402.402 0 0 1 .805 0 1.751 1.751 0 1 0 3.501 0 .402.402 0 0 1 .805 0 1.751 1.751 0 1 0 3.5 0 .402.402 0 0 1 .805 0 1.75 1.75 0 0 0 3.374.677c.087-.215.13-.445.127-.677a.402.402 0 0 1 .805 0 2.558 2.558 0 0 1-2.555 2.556z" fill="#AFD1FD"/><path d="M24.473 21.028a2.554 2.554 0 0 1-2.153-1.18 2.553 2.553 0 0 1-4.306 0 2.554 2.554 0 0 1-4.305 0A2.555 2.555 0 0 1 9 18.472a.402.402 0 1 1 .805 0 1.75 1.75 0 1 0 3.5 0 .402.402 0 1 1 .805 0 1.751 1.751 0 1 0 3.501 0 .402.402 0 0 1 .805 0 1.75 1.75 0 0 0 3.373.676c.087-.215.13-.444.128-.676a.402.402 0 0 1 .804 0 1.751 1.751 0 1 0 3.502 0 .402.402 0 1 1 .804 0 2.558 2.558 0 0 1-2.554 2.555z" fill="#9AA1EB"/><g fill="#BFFDFF"><path d="m19.817 4.636-1.52-1.518a.401.401 0 0 0-.568 0l-1.518 1.518a.402.402 0 1 0 .568.57l.832-.833v4.01a.402.402 0 0 0 .805 0v-4.01l.832.832a.403.403 0 0 0 .569-.569zM11.913 5.869a.4.4 0 0 0-.57 0L9.826 7.387a.402.402 0 0 0 .57.569l.831-.832v4.01a.402.402 0 0 0 .805 0v-4.01l.832.832a.402.402 0 0 0 .568-.569l-1.518-1.518zM26.202 7.387l-1.519-1.518a.402.402 0 0 0-.569 0l-1.518 1.518a.403.403 0 1 0 .568.569l.832-.832v4.01a.402.402 0 0 0 .805 0v-4.01l.832.832a.402.402 0 0 0 .569-.569zM15.844 9.255a.402.402 0 0 0-.402.403v3.39a.403.403 0 0 0 .805 0v-3.39a.403.403 0 0 0-.403-.403zM20.183 9.255a.402.402 0 0 0-.402.403v3.39a.403.403 0 0 0 .804 0v-3.39a.403.403 0 0 0-.402-.403z"/></g></g></svg>