<svg width="19" height="19" fill="none" xmlns="http://www.w3.org/2000/svg"><g clip-path="url(#a)"><path d="M10.134.281c-.317-.317-.793-.396-1.19-.079 0 0-.079 0-.079.08-.634.792-6.504 7.93-6.504 11.58A7.109 7.109 0 0 0 9.5 19a7.109 7.109 0 0 0 7.139-7.139c0-3.648-5.87-10.787-6.505-11.58z" fill="url(#b)"/><path d="m7.705 13.984 4.767-4.767-1.121-1.122-4.768 4.767 1.122 1.122zM7.12 10.275a.793.793 0 1 0 0-1.586.793.793 0 0 0 0 1.586zM11.88 13.448a.793.793 0 1 0 0-1.586.793.793 0 0 0 0 1.586z" fill="#fff"/></g><defs><linearGradient id="b" x1="3.908" y1="16.383" x2="15.073" y2="5.222" gradientUnits="userSpaceOnUse"><stop stop-color="#34CDFA"/><stop offset="1" stop-color="#E8D9F1"/></linearGradient><clipPath id="a"><path fill="#fff" d="M0 0h19v19H0z"/></clipPath></defs></svg>