<svg width="25" height="25" fill="none" xmlns="http://www.w3.org/2000/svg"><g clip-path="url(#a)"><path d="M15.406 2.982h3.7a.366.366 0 1 0 0-.733h-3.7a.366.366 0 1 0 0 .733zM15.406 4.672h1.85a.366.366 0 1 0 0-.732h-1.85a.366.366 0 1 0 0 .732zM19.106 5.65h-3.7a.366.366 0 1 0 0 .732h3.7a.366.366 0 1 0 0-.733zM15.406 8.072h1.85a.366.366 0 1 0 0-.732h-1.85a.366.366 0 1 0 0 .732zM19.106 9.024h-3.7a.366.366 0 1 0 0 .732h3.7a.366.366 0 1 0 0-.732zM15.406 11.447h1.85a.366.366 0 1 0 0-.732h-1.85a.366.366 0 1 0 0 .732zM19.106 12.43h-3.7a.366.366 0 1 0 0 .733h3.7a.366.366 0 0 0 0-.732zM17.256 14.121h-1.85a.366.366 0 0 0 0 .733h1.85a.366.366 0 1 0 0-.732z" fill="#4F667A"/><path d="M15.955 19.787a5.178 5.178 0 0 1-1.553 3.712A5.176 5.176 0 0 1 10.742 25h-.075a5.196 5.196 0 0 1-3.59-1.513 5.183 5.183 0 0 1-1.547-3.574 5.22 5.22 0 0 1 2.404-4.52V2.809A2.812 2.812 0 0 1 10.742 0a2.81 2.81 0 0 1 2.807 2.808v12.586a5.236 5.236 0 0 1 2.406 4.393z" fill="#E9F5FF"/><path d="M15.955 19.787a5.178 5.178 0 0 1-1.553 3.712A5.176 5.176 0 0 1 10.742 25H9.277a5.168 5.168 0 0 0 3.66-1.501 5.176 5.176 0 0 0 1.553-3.712c0-1.776-.917-1.965-2.405-2.92V2.807a2.813 2.813 0 0 0-2.076-2.71 2.81 2.81 0 0 1 3.54 2.71v12.587a5.237 5.237 0 0 1 2.406 4.393z" fill="#CDEAF7"/><path d="M14.49 19.794a3.72 3.72 0 0 1-1.117 2.669 3.725 3.725 0 0 1-2.635 1.08l-.05-.001a3.736 3.736 0 0 1-2.58-1.088 3.723 3.723 0 0 1-1.114-2.568 3.757 3.757 0 0 1 1.86-3.332c.336-.195.545-.56.545-.948V2.815a1.344 1.344 0 0 1 1.343-1.343c.74 0 1.342.603 1.342 1.343v12.791c0 .389.209.752.545.948a3.767 3.767 0 0 1 1.86 3.24z" fill="#FF6E6E"/><path d="M14.49 19.794a3.72 3.72 0 0 1-1.117 2.669 3.725 3.725 0 0 1-2.635 1.08l-.05-.001a3.747 3.747 0 0 1-.556-.05 3.717 3.717 0 0 0 2.02-1.03 3.72 3.72 0 0 0 1.117-2.668 3.767 3.767 0 0 0-1.861-3.24 1.103 1.103 0 0 1-.545-.948V2.815c0-.52-.298-.973-.732-1.196a1.344 1.344 0 0 1 1.953 1.196v12.791c0 .389.209.752.545.948a3.767 3.767 0 0 1 1.86 3.24z" fill="#F44E92"/><path d="M12.084 2.815v3.2H9.399v-3.2a1.344 1.344 0 0 1 1.343-1.343c.74 0 1.342.603 1.342 1.343z" fill="#4F667A"/><path d="M12.084 2.815v3.2h-1.22v-3.2c0-.52-.299-.973-.733-1.196a1.344 1.344 0 0 1 1.953 1.196z" fill="#3A5366"/></g><defs><clipPath id="a"><path fill="#fff" d="M0 0h25v25H0z"/></clipPath></defs></svg>