<svg width="20" height="20" fill="none" xmlns="http://www.w3.org/2000/svg"><path d="M16.087 2.609a3.918 3.918 0 0 0-3.913 3.913.435.435 0 1 0 .87 0 3.047 3.047 0 0 1 3.043-3.044 3.047 3.047 0 0 1 3.043 3.044 3.047 3.047 0 0 1-3.043 3.043H.435a.435.435 0 0 0 0 .87h15.652A3.918 3.918 0 0 0 20 6.522a3.918 3.918 0 0 0-3.913-3.913z" fill="#007AFF"/><path d="M.435 7.826h7.391a3.047 3.047 0 0 0 3.044-3.043 3.047 3.047 0 0 0-3.044-3.044 3.047 3.047 0 0 0-3.043 3.044.435.435 0 0 0 .87 0c0-1.2.974-2.174 2.173-2.174S10 3.584 10 4.783a2.176 2.176 0 0 1-2.174 2.174H.435a.435.435 0 0 0 0 .87zM15.217 17.391a2.176 2.176 0 0 1-2.174-2.174.435.435 0 1 0-.87 0 3.047 3.047 0 0 0 3.044 3.044 3.047 3.047 0 0 0 3.044-3.044 3.047 3.047 0 0 0-3.044-3.043H.435a.435.435 0 0 0 0 .87h14.782c1.2 0 2.174.975 2.174 2.173a2.176 2.176 0 0 1-2.174 2.174z" fill="#007AFF"/></svg>